<?xml version="1.0"?><svg width="645.06787" height="707.35486" xmlns="http://www.w3.org/2000/svg">
 <title>PlainWifiRight</title>

 <metadata id="metadata3799">image/svg+xml</metadata>
 <g>
  <title>Layer 1</title>
  <g id="layer1" transform="rotate(90, 350.715, 354.961)">
   <g id="g3848">
    <path fill="#2b1c9e" id="path3812" d="m359.118683,603.134399c0,26.944153 -21.84259,48.786743 -48.786774,48.786743c-26.944214,0 -48.786774,-21.84259 -48.786774,-48.786743c0,-26.944214 21.84256,-48.786804 48.786774,-48.786804c26.944214,0 48.786774,21.84259 48.786774,48.786804z"/>
    <path fill="#2b1c9e" d="m320.48761,265.141754c-88.706253,0 -167.248047,33.722961 -215.500031,85.5625l40,61.65625c35.115707,-46.920776 100.545593,-78.46875 175.500031,-78.46875c69.397095,0 130.639771,27.062592 167.21875,68.3125l41.46875,-58.53125c-48.658264,-47.848236 -124.050781,-78.53125 -208.6875,-78.53125z" id="path3814"/>
    <path fill="#2b1c9e" d="m313.36261,419.423004c-50.456665,0 -96.517212,18.781128 -131.562515,49.6875l33.78125,52.093719c26.406311,-22.23526 60.515213,-35.656219 97.781265,-35.656219c34.983948,0 67.176819,11.814789 92.84375,31.656219l35.84375,-50.624969c-34.676819,-29.419891 -79.598145,-47.15625 -128.6875,-47.15625z" id="path3822"/>
    <path fill="#2b1c9e" id="path3824" d="m319.355988,112c-116.583984,0 -221.30719,45.127411 -293.436989,116.811996l37.9062,58.406998c53.300701,-61.703995 147.013805,-102.687988 253.780788,-102.687988c105.947021,0 199.071991,40.339996 252.594025,101.25l41.312988,-58.281006c-72.106995,-70.929108 -176.27301,-115.5 -292.157013,-115.5l0,0z"/>
   </g>
  </g>
 </g>
</svg>